<!DOCTYPE svg PUBLIC "-//W3C//DTD SVG 20010904//EN" "http://www.w3.org/TR/2001/REC-SVG-20010904/DTD/svg10.dtd">
<svg version="1.0" xmlns="http://www.w3.org/2000/svg" width="512px" height="512px" viewBox="0 0 5120 5120" preserveAspectRatio="xMidYMid meet">
<g id="layer101" fill="#000000" stroke="none">
 <path d="M43 4670 c-40 -16 -46 -44 -39 -180 3 -69 11 -213 16 -320 5 -107 63 -899 129 -1760 l119 -1564 31 -28 31 -28 370 0 370 0 5 -22 c2 -13 11 -79 19 -148 14 -120 16 -126 47 -154 26 -23 38 -27 68 -22 22 3 45 16 60 33 22 26 23 32 18 113 -4 47 -10 111 -13 142 l-7 58 120 0 121 0 6 -32 c3 -18 11 -82 17 -143 11 -103 14 -112 45 -143 18 -18 42 -32 55 -32 36 0 88 36 95 66 4 15 0 85 -7 156 l-15 128 816 0 817 0 12 -117 c18 -163 26 -190 64 -214 38 -24 80 -19 114 13 34 31 35 44 18 179 -8 68 -15 127 -15 131 0 4 56 8 125 8 145 0 128 19 145 -159 12 -125 25 -161 65 -179 42 -19 65 -14 101 22 37 37 39 48 26 167 l-8 66 71 -33 c100 -46 192 -65 315 -65 291 0 545 161 676 426 55 113 69 204 61 390 -9 201 -58 315 -203 463 l-83 86 135 1025 c74 564 139 1073 144 1131 5 58 13 139 16 181 14 162 22 159 -390 159 l-316 0 -4 23 c-3 12 -7 46 -9 75 -3 41 -10 60 -31 80 l-26 27 -1641 0 -1641 0 -24 -28 c-34 -39 -32 -92 3 -129 l27 -28 1572 0 1573 0 5 -32 c5 -29 176 -2297 176 -2324 0 -7 -34 -13 -87 -17 -152 -10 -297 -68 -415 -168 l-47 -39 -1730 0 c-952 0 -1731 3 -1731 8 -1 4 -45 583 -98 1287 l-98 1280 331 3 332 2 27 29 c38 39 38 93 2 130 l-26 26 -393 2 c-215 1 -402 -2 -414 -7z m4883 -427 c-3 -21 -67 -504 -141 -1073 -74 -569 -137 -1049 -140 -1067 -5 -28 -8 -31 -28 -24 -12 5 -25 19 -29 32 -4 13 -41 485 -83 1049 -42 564 -79 1046 -82 1073 l-6 47 258 0 257 0 -6 -37z m-383 -2342 c151 -53 262 -149 326 -283 46 -96 61 -161 61 -260 0 -253 -177 -480 -425 -543 -76 -19 -205 -19 -280 0 -250 66 -424 290 -425 547 0 94 16 160 61 254 74 157 229 273 409 308 56 11 216 -3 273 -23z m-859 -198 c-48 -109 -68 -193 -72 -309 -5 -137 14 -238 68 -351 l29 -63 -105 0 -104 0 0 33 c0 17 -7 75 -14 127 -12 80 -19 98 -41 117 -39 34 -89 31 -127 -8 -30 -30 -31 -32 -25 -102 4 -40 9 -93 13 -119 l7 -48 -817 0 c-449 0 -816 1 -816 3 0 1 -7 56 -15 122 -13 105 -18 122 -42 147 -47 49 -123 35 -149 -27 -13 -33 -10 -93 11 -217 l5 -28 -124 0 -123 0 -13 113 c-18 155 -37 187 -112 187 -25 0 -42 -8 -63 -30 -28 -29 -28 -31 -22 -117 4 -48 9 -103 13 -120 l6 -33 -300 0 -300 0 -6 58 c-3 31 -15 183 -26 337 -11 154 -22 295 -24 313 l-5 32 1651 0 c1568 0 1650 -1 1642 -17z"/>
 <path d="M4159 1482 c-122 -120 -132 -143 -84 -200 49 -59 91 -52 179 29 l57 52 67 -64 c171 -164 167 -161 208 -161 49 0 94 45 94 95 0 28 -18 51 -165 195 -159 157 -166 162 -206 162 -39 0 -47 -6 -150 -108z"/>
 <path d="M556 3891 c-38 -39 -38 -93 -2 -130 26 -26 27 -26 211 -29 205 -4 232 3 255 57 15 38 7 75 -25 107 -24 24 -26 24 -218 24 l-193 0 -28 -29z"/>
 <path d="M1119 3891 c-47 -48 -38 -116 21 -146 36 -19 358 -22 393 -4 63 32 75 102 28 150 l-29 29 -192 0 -192 0 -29 -29z"/>
 <path d="M1679 3891 c-45 -46 -32 -123 26 -149 32 -15 352 -17 389 -2 60 23 76 103 30 151 l-28 29 -194 0 -194 0 -29 -29z"/>
 <path d="M2253 3902 c-48 -38 -51 -101 -6 -144 24 -22 29 -23 218 -23 190 0 194 0 219 24 46 43 43 102 -8 143 -18 15 -46 18 -211 18 -165 0 -193 -3 -212 -18z"/>
 <path d="M609 3421 c-47 -48 -35 -118 28 -150 14 -7 89 -11 203 -11 l182 0 29 29 c42 42 41 99 -2 135 -31 26 -31 26 -221 26 l-190 0 -29 -29z"/>
 <path d="M1183 3432 c-28 -22 -45 -66 -37 -98 3 -13 20 -35 36 -49 29 -25 32 -25 214 -25 l184 0 32 29 c43 38 44 88 3 131 l-29 30 -190 0 c-166 0 -194 -3 -213 -18z"/>
 <path d="M1741 3424 c-26 -21 -31 -33 -31 -69 0 -36 5 -48 31 -69 30 -26 32 -26 209 -26 195 0 222 6 246 51 21 42 17 74 -15 108 l-29 31 -190 0 c-190 0 -190 0 -221 -26z"/>
 <path d="M2299 3421 c-47 -48 -38 -116 21 -146 23 -12 68 -15 210 -15 l182 0 29 29 c21 22 29 39 29 66 0 27 -8 44 -29 66 l-29 29 -192 0 -192 0 -29 -29z"/>
 <path d="M2867 3426 c-33 -31 -43 -68 -27 -107 22 -53 49 -59 249 -59 l181 0 31 28 c43 38 44 90 4 132 l-29 30 -191 0 c-189 0 -192 0 -218 -24z"/>
 <path d="M3429 3422 c-25 -22 -31 -36 -31 -67 0 -31 6 -45 31 -67 l31 -28 181 0 c200 0 227 6 249 59 16 39 6 76 -27 107 -25 24 -29 24 -214 24 l-189 0 -31 -28z"/>
 <path d="M669 2952 c-44 -39 -44 -95 0 -134 l31 -28 189 0 c185 0 189 0 214 24 33 31 43 68 27 107 -22 53 -49 59 -249 59 l-181 0 -31 -28z"/>
 <path d="M1229 2951 c-21 -22 -29 -39 -29 -66 0 -27 8 -44 29 -66 l29 -29 192 0 192 0 29 29 c21 22 29 39 29 66 0 27 -8 44 -29 66 l-29 29 -192 0 -192 0 -29 -29z"/>
 <path d="M1809 2965 c-32 -17 -54 -66 -45 -101 4 -14 19 -37 33 -50 25 -24 29 -24 214 -24 l189 0 31 28 c25 22 31 36 31 67 0 31 -6 45 -31 67 l-31 28 -183 0 c-138 -1 -188 -4 -208 -15z"/>
 <path d="M2358 2951 c-25 -22 -32 -36 -32 -66 0 -30 7 -44 32 -66 l32 -29 189 0 c185 0 189 0 214 24 33 31 43 68 27 107 -22 53 -49 59 -249 59 l-181 0 -32 -29z"/>
 <path d="M2919 2951 c-21 -22 -29 -39 -29 -66 0 -27 8 -44 29 -66 l29 -29 192 0 192 0 29 29 c47 48 38 116 -21 146 -23 12 -68 15 -210 15 l-182 0 -29 -29z"/>
 <path d="M3505 2968 c-62 -34 -72 -99 -24 -147 l31 -31 188 0 c188 0 189 0 219 26 43 36 44 93 2 135 l-29 29 -184 0 c-114 0 -191 -5 -203 -12z"/>
 <path d="M2975 2477 c-36 -36 -43 -63 -24 -100 28 -54 40 -57 245 -57 l190 0 29 30 c39 41 40 90 2 128 l-27 27 -191 3 -190 3 -34 -34z"/>
 <path d="M3565 2501 c-62 -26 -77 -102 -29 -152 l28 -29 193 0 c192 0 194 0 218 24 32 32 40 69 25 107 -22 52 -50 59 -242 58 -95 0 -182 -4 -193 -8z"/>
 </g>

</svg>