<!DOCTYPE svg PUBLIC "-//W3C//DTD SVG 20010904//EN" "http://www.w3.org/TR/2001/REC-SVG-20010904/DTD/svg10.dtd">
<svg version="1.0" xmlns="http://www.w3.org/2000/svg" width="512px" height="512px" viewBox="0 0 5120 5120" preserveAspectRatio="xMidYMid meet">
<g id="layer101" fill="#000000" stroke="none">
 <path d="M2409 4676 c-113 -33 -209 -95 -334 -215 -60 -58 -390 -382 -732 -720 -584 -575 -623 -616 -623 -648 0 -45 14 -69 50 -88 24 -12 76 -15 277 -15 136 0 254 -4 261 -8 6 -5 125 -213 262 -463 146 -265 263 -465 280 -482 37 -33 80 -35 114 -5 16 14 132 241 294 569 147 301 274 554 281 563 16 19 61 21 84 4 9 -7 102 -188 206 -403 105 -214 201 -403 213 -418 32 -39 84 -46 121 -17 19 15 76 118 177 321 88 175 158 302 169 309 13 7 273 10 791 10 l771 0 24 25 c18 17 25 35 25 64 0 101 0 101 -408 101 l-340 0 -703 693 c-387 380 -727 709 -755 729 -153 112 -332 146 -505 94z m330 -212 c83 -41 5 33 960 -907 l404 -397 -295 0 c-438 0 -423 8 -588 -320 l-108 -215 -156 317 c-164 335 -189 372 -270 409 -26 12 -64 19 -106 19 -57 0 -73 -5 -120 -32 -31 -19 -67 -52 -85 -78 -17 -25 -130 -246 -250 -492 -121 -246 -223 -444 -227 -440 -4 4 -98 171 -208 372 -118 214 -216 381 -238 404 -62 65 -102 76 -267 76 l-143 0 603 595 c331 328 620 609 641 626 144 114 304 137 453 63z"/>
 <path d="M26 2839 c-22 -18 -26 -28 -26 -74 0 -46 4 -56 26 -74 23 -18 41 -21 130 -21 57 0 104 -2 104 -3 0 -2 -25 -41 -55 -86 -161 -241 -211 -440 -202 -816 5 -233 15 -312 55 -426 65 -189 170 -356 314 -505 198 -204 428 -331 708 -391 119 -25 410 -25 528 0 265 58 477 170 675 356 77 73 187 216 238 308 19 35 36 63 39 63 3 0 19 -26 35 -58 116 -222 354 -445 600 -561 174 -83 331 -121 531 -128 190 -8 360 18 521 79 104 38 134 108 74 169 -37 37 -60 37 -178 -1 -293 -94 -593 -75 -868 55 -237 113 -424 299 -536 533 -28 59 -61 127 -72 151 -12 25 -34 53 -49 64 -59 43 -141 6 -174 -80 -42 -106 -119 -248 -174 -321 -370 -488 -1050 -605 -1567 -270 -266 174 -452 456 -507 773 -20 116 -21 341 -1 464 35 214 134 423 273 572 l54 59 300 -2 299 -3 284 -515 c156 -283 300 -534 320 -558 55 -63 105 -86 190 -86 83 0 132 21 188 83 25 28 110 189 259 492 l222 450 153 -313 c107 -218 165 -325 191 -352 102 -106 274 -102 371 9 17 20 115 203 216 406 l185 369 460 0 460 0 36 -40 c118 -130 204 -296 256 -490 29 -110 37 -411 14 -535 -54 -294 -200 -545 -415 -715 -102 -80 -120 -110 -98 -163 18 -41 42 -57 91 -57 27 0 50 12 108 58 270 215 457 533 497 843 16 121 14 416 -4 545 -30 228 -146 466 -316 648 -59 64 -74 74 -121 85 -39 9 -183 11 -559 9 -491 -3 -508 -4 -529 -23 -12 -11 -110 -195 -217 -410 -107 -214 -202 -398 -211 -407 -20 -23 -68 -23 -87 0 -8 9 -101 193 -206 407 -104 215 -201 401 -213 414 -33 32 -90 32 -124 -2 -14 -14 -145 -270 -292 -569 -231 -470 -270 -544 -293 -552 -21 -8 -33 -6 -53 10 -16 11 -143 231 -329 569 -167 302 -313 557 -325 567 -21 17 -60 18 -600 18 -569 0 -578 0 -604 -21z"/>
 </g>

</svg>