<!DOCTYPE svg PUBLIC "-//W3C//DTD SVG 20010904//EN" "http://www.w3.org/TR/2001/REC-SVG-20010904/DTD/svg10.dtd">
<svg version="1.0" xmlns="http://www.w3.org/2000/svg" width="512px" height="512px" viewBox="0 0 5120 5120" preserveAspectRatio="xMidYMid meet">
<g id="layer101" fill="#000000" stroke="none">
 <path d="M937 4192 c-27 -28 -27 -29 -27 -173 0 -121 3 -147 18 -165 42 -53 103 -54 147 -2 22 26 25 39 25 104 l0 74 155 0 155 0 0 -1470 0 -1470 -155 0 -155 0 0 1290 0 1290 -29 32 -29 33 -276 3 c-237 2 -280 1 -306 -13 -57 -30 -60 -49 -60 -423 l0 -339 -71 -12 c-153 -25 -274 -124 -314 -257 -19 -63 -19 -205 0 -268 40 -133 161 -232 314 -257 l71 -12 0 -339 c0 -373 3 -393 59 -422 24 -13 69 -16 241 -16 l210 0 0 -212 0 -212 27 -28 27 -28 292 0 292 0 26 31 26 31 0 599 0 599 960 0 960 0 0 -599 0 -599 26 -31 26 -31 292 0 292 0 27 28 c27 28 27 29 27 176 l0 148 -29 29 c-48 47 -118 35 -150 -28 -6 -12 -11 -53 -11 -92 l0 -71 -155 0 -155 0 0 1470 0 1470 155 0 155 0 0 -1290 0 -1290 29 -32 29 -33 276 -3 c237 -2 280 -1 306 13 57 30 60 49 60 423 l0 339 71 12 c153 25 274 124 314 257 19 63 19 205 0 268 -40 133 -161 232 -314 257 l-71 12 0 339 c0 373 -3 393 -59 422 -24 13 -69 16 -241 16 l-210 0 0 213 0 213 -28 27 -28 27 -291 0 -291 0 -26 -31 -26 -31 0 -599 0 -599 -960 0 -960 0 0 599 0 599 -26 31 -26 31 -292 0 -292 0 -27 -28z m-27 -1632 l0 -990 -155 0 -155 0 0 990 0 990 155 0 155 0 0 -990z m3610 0 l0 -990 -155 0 -155 0 0 990 0 990 155 0 155 0 0 -990z m-4120 -1 c0 -195 -1 -210 -17 -206 -10 3 -34 8 -53 11 -20 3 -53 20 -74 38 -74 61 -97 164 -53 248 36 71 89 104 190 119 4 1 7 -94 7 -210z m1470 1 l0 -210 -135 0 -135 0 0 210 0 210 135 0 135 0 0 -210z m1180 0 l0 -210 -490 0 -490 0 0 210 0 210 490 0 490 0 0 -210z m470 0 l0 -210 -135 0 -135 0 0 210 0 210 135 0 135 0 0 -210z m1270 196 c78 -13 150 -107 150 -196 0 -89 -72 -183 -150 -196 -19 -3 -43 -8 -52 -11 -17 -4 -18 11 -18 207 0 196 1 211 18 207 9 -3 33 -8 52 -11z"/>
 </g>

</svg>