<!DOCTYPE svg PUBLIC "-//W3C//DTD SVG 20010904//EN" "http://www.w3.org/TR/2001/REC-SVG-20010904/DTD/svg10.dtd">
<svg version="1.0" xmlns="http://www.w3.org/2000/svg" width="512px" height="512px" viewBox="0 0 5120 5120" preserveAspectRatio="xMidYMid meet">
<g id="layer101" fill="#000000" stroke="none">
 <path d="M3135 5080 c-337 -61 -626 -203 -870 -430 l-96 -90 -628 0 c-602 0 -630 -1 -686 -20 -146 -50 -262 -169 -310 -318 -13 -41 -16 -78 -13 -155 3 -89 8 -111 35 -169 17 -37 53 -90 79 -118 l47 -50 -47 -50 c-26 -28 -62 -81 -79 -118 -31 -64 -32 -72 -32 -192 0 -120 1 -128 32 -192 17 -37 53 -90 79 -118 l47 -50 -47 -50 c-26 -28 -62 -81 -79 -118 -31 -64 -32 -72 -32 -192 0 -120 1 -128 32 -192 17 -37 53 -90 79 -118 l47 -50 -47 -50 c-26 -28 -62 -81 -79 -118 -27 -58 -32 -80 -35 -169 -3 -77 0 -114 13 -155 48 -149 164 -268 310 -318 49 -17 84 -20 217 -20 87 0 158 -2 158 -4 0 -2 -12 -30 -27 -62 -25 -54 -27 -69 -27 -184 0 -115 2 -130 27 -184 15 -32 27 -60 27 -62 0 -2 -193 -4 -428 -4 -403 0 -432 -1 -487 -20 -105 -36 -205 -116 -263 -212 -70 -113 -70 -363 0 -476 58 -96 158 -176 263 -212 57 -20 83 -20 1370 -20 1287 0 1313 0 1370 20 147 50 262 169 310 319 26 81 17 235 -19 315 -14 32 -26 60 -26 62 0 2 193 4 428 4 403 0 432 1 487 20 105 36 205 116 263 211 84 137 84 341 0 478 -58 95 -158 175 -263 211 -49 17 -84 20 -221 20 l-163 0 17 30 c14 24 32 34 98 56 108 34 282 119 385 187 347 230 611 585 718 968 47 167 65 491 40 714 -39 354 -207 692 -480 964 -266 267 -581 426 -959 486 -133 21 -405 18 -535 -5z m510 -224 c316 -49 610 -200 832 -427 137 -139 241 -297 312 -470 125 -306 147 -653 61 -963 -69 -250 -207 -483 -391 -663 -99 -97 -161 -145 -284 -219 -228 -136 -478 -204 -755 -204 -397 0 -746 141 -1029 414 -296 286 -451 653 -451 1066 0 335 98 628 301 899 63 86 197 220 279 282 193 143 435 247 665 284 108 17 350 18 460 1z m-1679 -558 c-53 -85 -146 -284 -173 -370 l-27 -88 -376 0 c-413 0 -472 6 -534 54 -20 15 -49 46 -64 69 -24 36 -27 50 -27 127 0 77 3 91 27 127 39 58 91 95 157 109 39 9 203 13 550 13 l493 1 -26 -42z m-254 -860 c-2 -101 0 -213 5 -250 l10 -68 -356 0 c-392 0 -454 7 -515 54 -20 15 -49 46 -64 69 -24 36 -27 50 -27 127 0 77 3 91 27 127 39 58 91 95 157 109 37 8 173 13 411 13 l355 1 -3 -182z m88 -605 c33 -98 120 -277 173 -358 l46 -70 -492 -3 c-327 -2 -514 1 -559 9 -79 13 -133 47 -175 111 -25 37 -28 50 -28 128 0 77 3 91 27 127 39 58 91 95 157 109 38 8 180 13 442 13 l385 1 24 -67z m471 -711 c249 -226 559 -375 884 -426 80 -12 -31 -14 -1025 -15 -875 0 -1128 2 -1177 12 -70 15 -121 50 -161 110 -24 36 -27 50 -27 127 0 77 3 91 27 127 39 58 91 95 157 109 40 9 226 13 657 13 l601 1 64 -58z m1866 -675 c70 -15 121 -50 161 -110 24 -36 27 -50 27 -127 0 -77 -3 -91 -27 -127 -40 -60 -91 -95 -161 -110 -90 -19 -2454 -19 -2544 0 -70 15 -121 50 -161 110 -24 36 -27 50 -27 127 0 77 3 91 27 127 39 58 91 95 157 109 84 18 2461 19 2548 1z m-1180 -720 c70 -15 121 -50 161 -110 24 -36 27 -50 27 -127 0 -77 -3 -91 -27 -127 -40 -60 -91 -95 -161 -110 -90 -19 -2454 -19 -2544 0 -70 15 -121 50 -161 110 -24 36 -27 50 -27 127 0 77 3 91 27 127 39 58 91 95 157 109 84 18 2461 19 2548 1z"/>
 <path d="M3188 4671 c-29 -26 -33 -35 -33 -81 0 -46 4 -55 33 -81 26 -24 41 -29 81 -29 42 0 54 5 80 31 26 26 31 38 31 79 0 41 -5 53 -31 79 -26 26 -38 31 -80 31 -40 0 -55 -5 -81 -29z"/>
 <path d="M2807 4552 c-289 -150 -526 -429 -631 -742 -48 -145 -66 -257 -66 -420 0 -206 44 -403 128 -570 30 -60 44 -79 74 -93 47 -23 86 -16 128 23 40 38 41 92 2 175 -126 265 -137 591 -30 857 97 241 266 437 477 552 39 22 80 49 91 61 64 68 28 172 -65 191 -24 4 -49 -4 -108 -34z"/>
 <path d="M3374 4201 c-32 -14 -62 -57 -69 -101 -5 -32 -11 -40 -35 -45 -42 -9 -139 -75 -184 -125 -69 -77 -114 -212 -95 -284 25 -91 141 -113 199 -39 11 14 23 47 26 75 14 102 90 163 204 163 136 -1 218 -89 196 -209 -8 -44 -45 -89 -92 -111 -20 -9 -80 -22 -134 -30 -68 -8 -118 -22 -162 -42 -265 -125 -322 -445 -113 -642 50 -47 139 -101 169 -101 9 0 16 -16 21 -47 10 -67 57 -113 115 -113 34 0 48 6 76 34 28 28 34 42 34 75 0 31 5 43 18 48 172 58 292 198 300 354 5 78 -10 108 -65 134 -73 35 -147 -15 -160 -110 -15 -114 -117 -180 -247 -161 -89 14 -156 85 -156 165 0 106 72 166 218 181 113 12 189 40 255 94 115 93 161 190 155 326 -4 102 -32 169 -101 246 -45 49 -166 124 -201 124 -12 0 -16 10 -16 40 0 55 -40 100 -95 105 -22 3 -50 1 -61 -4z"/>
 <path d="M4419 4046 c-20 -14 -39 -32 -43 -41 -13 -34 -5 -92 20 -145 72 -151 104 -298 104 -470 0 -245 -74 -464 -223 -662 -89 -119 -190 -203 -370 -310 -25 -14 -53 -38 -62 -52 -40 -61 -6 -147 66 -166 35 -10 47 -8 96 15 151 69 349 235 467 392 119 158 207 362 241 557 20 116 20 339 -1 447 -33 180 -119 402 -167 434 -44 29 -88 29 -128 1z"/>
 <path d="M3491 2269 c-26 -26 -31 -38 -31 -79 0 -41 5 -53 31 -79 26 -26 38 -31 80 -31 40 0 55 5 81 29 29 26 33 35 33 81 0 46 -4 55 -33 81 -26 24 -41 29 -81 29 -42 0 -54 -5 -80 -31z"/>
 </g>

</svg>