<!DOCTYPE svg PUBLIC "-//W3C//DTD SVG 20010904//EN" "http://www.w3.org/TR/2001/REC-SVG-20010904/DTD/svg10.dtd">
<svg version="1.0" xmlns="http://www.w3.org/2000/svg" width="512px" height="512px" viewBox="0 0 5120 5120" preserveAspectRatio="xMidYMid meet">
<g id="layer101" fill="#000000" stroke="none">
 <path d="M2345 5050 c-364 -23 -691 -104 -963 -240 l-142 -71 -42 29 c-116 79 -314 153 -480 178 -175 27 -457 6 -547 -41 -72 -37 -74 -143 -4 -186 34 -21 40 -22 102 -11 160 29 240 34 350 23 202 -21 348 -74 508 -184 98 -68 132 -73 196 -29 116 79 297 159 467 207 613 172 1363 119 2189 -155 213 -71 558 -204 676 -261 82 -40 172 -126 206 -194 21 -44 24 -63 23 -155 -1 -84 -5 -117 -23 -163 -27 -69 -29 -107 -8 -169 55 -161 69 -437 33 -668 -58 -380 -229 -830 -474 -1250 -397 -680 -759 -1178 -989 -1361 -52 -42 -72 -52 -125 -60 -187 -30 -867 86 -1177 201 -135 50 -137 51 -150 137 -18 123 -17 131 27 142 69 19 166 31 292 37 69 3 140 10 157 16 43 13 73 56 73 105 0 34 -9 50 -65 114 -35 41 -65 77 -65 80 0 4 37 13 83 20 57 10 175 14 387 14 278 0 315 -2 418 -23 151 -30 208 -53 272 -108 50 -43 57 -46 98 -41 76 8 120 78 92 146 -25 60 -146 147 -250 178 -30 9 -56 17 -57 18 -9 5 -78 305 -98 427 -63 387 -51 719 37 986 23 70 38 99 62 118 206 170 344 379 436 662 49 151 49 185 -1 226 -43 36 -98 35 -139 -1 -24 -22 -41 -58 -75 -160 -24 -72 -58 -160 -76 -195 -128 -253 -301 -409 -526 -470 -62 -17 -107 -21 -218 -21 -208 -1 -381 41 -616 149 -53 24 -110 44 -127 44 -44 0 -79 -34 -145 -142 -146 -236 -324 -387 -561 -479 -308 -119 -726 -109 -1140 27 -154 51 -190 52 -226 7 -30 -39 -28 -122 5 -155 35 -35 286 -111 485 -147 219 -40 551 -40 735 -1 266 57 469 160 651 333 75 71 224 253 236 287 3 10 33 2 110 -28 284 -111 605 -149 823 -98 33 8 60 14 61 13 1 -1 -7 -42 -17 -92 -58 -284 -48 -660 27 -1030 13 -66 28 -136 34 -155 17 -60 15 -63 -35 -56 -69 11 -464 8 -583 -4 -338 -33 -428 -74 -426 -190 0 -32 10 -66 27 -100 15 -29 27 -54 27 -56 0 -2 -16 -4 -36 -4 -65 0 -238 -41 -288 -68 -83 -46 -116 -108 -116 -223 0 -77 16 -208 31 -256 24 -74 152 -152 365 -222 481 -157 1128 -232 1310 -151 125 55 343 278 566 580 149 202 391 574 571 880 252 428 432 868 501 1225 49 256 49 647 0 856 -14 59 -14 71 0 117 21 72 30 223 18 314 -15 113 -58 194 -157 293 -44 45 -108 98 -142 119 -66 39 -417 182 -658 267 -361 128 -741 222 -1085 268 -126 17 -514 44 -574 39 -12 0 -75 -4 -141 -8z"/>
 <path d="M774 4036 c-44 -44 -47 -99 -8 -146 44 -52 173 -152 280 -216 473 -284 1055 -335 1634 -145 246 82 324 125 330 186 5 46 -2 65 -31 94 -41 42 -86 41 -192 -3 -295 -122 -572 -174 -867 -163 -360 13 -687 136 -955 360 -68 57 -85 67 -118 67 -31 0 -46 -7 -73 -34z"/>
 </g>

</svg>