<!DOCTYPE svg PUBLIC "-//W3C//DTD SVG 20010904//EN" "http://www.w3.org/TR/2001/REC-SVG-20010904/DTD/svg10.dtd">
<svg version="1.0" xmlns="http://www.w3.org/2000/svg" width="700px" height="377px" viewBox="0 0 7000 3770" preserveAspectRatio="xMidYMid meet">
<g id="layer101" fill="#e74b20" stroke="none">
 <path d="M4145 1736 c-123 -39 -193 -127 -183 -229 3 -32 3 -32 77 -41 67 -8 75 -7 87 9 8 11 14 29 14 41 0 12 9 32 19 45 18 22 27 24 106 24 79 0 88 -2 106 -24 24 -29 24 -63 2 -83 -10 -9 -63 -37 -117 -62 -123 -57 -163 -87 -187 -140 -40 -88 -16 -193 60 -257 53 -46 98 -59 207 -59 73 0 98 5 139 24 82 39 145 122 145 191 0 30 -4 32 -93 38 l-69 5 -18 -42 c-20 -48 -51 -66 -116 -66 -52 0 -79 12 -94 41 -19 35 11 62 137 123 127 62 168 92 189 143 19 45 17 130 -5 178 -25 56 -102 122 -164 140 -61 18 -187 19 -242 1z"/>
 <path d="M4957 1736 c-68 -18 -128 -63 -154 -115 -25 -49 -40 -128 -27 -141 5 -5 44 -12 86 -16 85 -7 81 -10 93 58 8 50 43 68 127 68 69 0 103 -16 117 -54 16 -41 -7 -62 -125 -117 -132 -61 -186 -108 -205 -181 -28 -103 29 -213 132 -257 45 -20 66 -22 153 -19 121 4 181 29 233 96 30 40 59 130 45 144 -4 3 -43 8 -86 10 l-79 3 -12 -34 c-17 -52 -48 -71 -114 -71 -73 0 -103 19 -99 63 3 30 11 36 133 97 146 73 187 109 204 177 32 124 -47 248 -182 288 -61 18 -174 18 -240 1z"/>
 <path d="M334 1726 c-5 -14 140 -728 152 -747 3 -5 122 -9 270 -9 203 0 266 3 269 13 2 6 -1 39 -8 72 l-13 60 -184 5 -185 5 -11 50 c-24 103 -38 95 156 95 128 0 172 3 175 13 2 6 -1 39 -8 72 l-13 60 -180 3 -181 2 -28 138 c-40 197 -30 182 -125 182 -61 0 -82 -4 -86 -14z"/>
 <path d="M1084 1726 c-5 -12 141 -730 152 -748 3 -4 41 -8 85 -8 62 0 81 3 86 15 5 16 -130 690 -147 733 -9 20 -16 22 -90 22 -59 0 -82 -4 -86 -14z"/>
 <path d="M1673 1725 c-4 -12 80 -443 114 -582 5 -23 4 -23 -96 -23 -75 0 -103 -3 -107 -13 -3 -8 1 -40 8 -73 l13 -59 295 -3 c162 -1 300 0 306 2 9 3 9 19 -1 64 -6 32 -15 64 -19 70 -5 8 -43 12 -109 12 l-102 0 -63 302 c-35 166 -66 306 -68 310 -3 4 -41 8 -85 8 -63 0 -81 -3 -86 -15z"/>
 <path d="M2263 1724 c-6 -15 130 -689 147 -731 9 -21 16 -23 84 -23 63 0 77 3 88 19 8 11 50 110 94 220 43 111 82 201 85 201 3 0 26 -98 51 -217 l44 -218 79 -3 c43 -2 82 1 86 5 10 10 -142 738 -157 753 -7 7 -41 10 -85 8 l-74 -3 -90 -223 c-63 -157 -92 -217 -97 -205 -4 10 -26 108 -49 218 -23 110 -43 203 -46 208 -2 4 -38 7 -79 7 -59 0 -76 -3 -81 -16z"/>
 <path d="M3126 1732 c-7 -12 144 -734 156 -749 8 -10 78 -13 288 -13 152 0 279 2 282 5 6 7 -15 116 -26 133 -5 9 -65 12 -201 12 l-194 0 -11 58 c-6 31 -13 63 -15 70 -3 9 37 12 181 12 144 0 186 3 190 13 3 8 -1 40 -8 73 l-13 59 -193 3 -192 2 -6 28 c-10 46 -25 106 -30 125 -5 16 9 17 205 17 115 0 212 4 215 8 5 9 -17 123 -28 140 -9 14 -592 17 -600 4z"/>
 <path d="M5923 1724 c-3 -9 -2 -28 3 -43 8 -21 17 -27 47 -29 21 -2 40 -9 43 -17 3 -7 -4 -44 -16 -82 -29 -92 -49 -214 -50 -293 -1 -36 -7 -83 -15 -105 -27 -75 -19 -131 44 -287 42 -103 41 -153 -6 -257 -9 -19 -19 -46 -23 -60 -5 -21 -14 -27 -40 -29 -21 -2 -59 -22 -100 -51 -36 -26 -73 -50 -82 -54 -26 -10 -26 -142 0 -156 16 -8 35 -38 79 -123 14 -26 18 -28 83 -28 67 0 70 1 85 30 18 35 20 91 3 108 -15 15 -54 16 -63 2 -10 -16 -25 -1 -25 26 0 19 5 24 24 24 13 0 29 7 36 15 8 9 27 14 54 13 30 -2 51 4 73 20 41 29 49 28 27 -5 -12 -19 -17 -45 -16 -80 2 -72 30 -110 88 -119 66 -10 95 5 123 60 27 55 30 100 6 126 -23 25 -3 34 34 15 17 -8 45 -15 64 -15 19 0 40 -7 47 -15 7 -8 24 -15 39 -15 25 0 27 -3 23 -35 -4 -30 -7 -33 -22 -25 -35 19 -78 12 -97 -16 -15 -24 -15 -29 -1 -67 l15 -42 86 -3 86 -3 16 34 c9 19 27 45 41 58 13 12 24 28 24 35 0 6 7 14 15 18 11 4 15 22 15 75 0 68 -1 71 -30 86 -16 9 -30 19 -30 24 0 15 -109 83 -128 79 -12 -2 -33 20 -70 75 -64 96 -77 126 -86 197 -6 47 -3 65 22 125 55 136 59 163 36 302 -5 35 -1 53 25 109 29 62 31 73 31 183 0 64 4 122 8 129 5 7 24 21 43 31 24 13 34 25 34 42 0 24 -1 24 -105 24 l-105 0 -3 -35 c-3 -46 -22 -107 -46 -150 -47 -85 -49 -91 -43 -161 4 -48 2 -71 -7 -78 -17 -14 -53 -88 -61 -125 -6 -27 -7 -27 -20 -10 -16 21 -20 124 -7 140 19 21 34 93 27 130 -10 60 -9 112 5 190 20 106 22 104 -125 104 -106 0 -127 -2 -132 -16z"/>
 </g>
<g id="layer102" fill="#ffffff" stroke="none">
 <path d="M4853 2981 c-126 -43 -207 -139 -232 -276 -35 -189 30 -404 162 -539 108 -110 221 -152 393 -144 128 5 202 36 274 115 47 52 94 148 88 182 -3 16 -36 25 -134 35 l-61 7 -29 -57 c-39 -76 -81 -99 -179 -98 -185 2 -305 153 -305 385 0 160 53 219 199 219 82 0 196 -32 211 -59 5 -10 12 -37 16 -60 l7 -41 -111 0 c-61 0 -113 -3 -115 -8 -3 -4 3 -45 12 -92 l17 -85 217 -3 c169 -2 218 0 222 10 2 7 -15 103 -38 213 l-42 200 -75 38 c-108 54 -211 77 -339 77 -75 -1 -121 -6 -158 -19z"/>
 <path d="M6020 2983 c-98 -34 -184 -116 -222 -212 -32 -82 -32 -247 0 -351 66 -209 204 -350 383 -390 82 -18 232 -9 292 18 158 71 236 213 224 412 -14 246 -165 455 -374 520 -82 25 -236 27 -303 3z m276 -201 c156 -80 237 -368 142 -505 -46 -65 -168 -88 -254 -46 -145 70 -239 337 -169 482 46 98 168 127 281 69z"/>
 <path d="M345 2978 c-4 -11 176 -898 190 -935 6 -19 704 -19 710 0 2 6 -3 48 -13 92 l-17 80 -247 3 -247 2 -10 38 c-5 20 -12 53 -16 72 -4 19 -9 43 -11 53 -5 16 11 17 229 17 128 0 236 2 239 5 3 3 -2 42 -11 88 l-17 82 -241 3 -241 2 -11 48 c-5 26 -16 75 -25 109 l-14 63 261 2 262 3 -2 50 c-1 28 -8 68 -15 90 l-13 40 -368 3 c-289 2 -369 0 -372 -10z"/>
 <path d="M1365 2978 c-2 -7 40 -222 94 -478 l97 -465 96 -3 c68 -2 98 1 105 10 6 7 62 139 124 292 l113 279 58 -279 c32 -153 60 -285 63 -291 3 -9 33 -13 100 -13 68 0 97 4 100 13 2 6 -39 221 -93 477 l-97 465 -96 3 c-69 2 -99 -1 -106 -10 -5 -7 -59 -136 -119 -285 -60 -150 -111 -273 -114 -273 -3 0 -29 118 -59 263 -30 144 -58 272 -62 285 -8 21 -14 22 -104 22 -68 0 -97 -4 -100 -12z"/>
 <path d="M2447 2983 c-5 -10 186 -923 196 -940 6 -10 88 -13 353 -13 302 0 345 2 351 15 6 17 -14 129 -29 158 -8 15 -30 17 -252 17 l-243 0 -17 83 c-9 45 -16 85 -16 90 0 4 104 7 230 7 189 0 232 3 236 14 3 8 -3 47 -13 88 l-18 73 -239 5 -239 5 -23 100 c-13 55 -24 103 -24 108 0 4 117 7 260 7 211 0 262 3 266 14 3 7 -3 49 -13 92 l-18 79 -372 3 c-204 1 -374 -1 -376 -5z"/>
 <path d="M3474 2975 c-7 -16 169 -879 187 -923 l9 -24 268 5 c289 5 321 10 377 58 54 48 80 111 79 199 0 94 -29 163 -88 218 -36 33 -135 82 -166 82 -4 0 10 27 32 60 46 70 139 272 141 309 l2 26 -106 3 c-77 2 -109 -1 -116 -10 -5 -7 -30 -67 -56 -133 -81 -207 -102 -230 -207 -241 l-65 -6 -40 193 -40 194 -103 3 c-86 2 -103 0 -108 -13z m518 -545 c51 -5 100 -16 118 -27 39 -22 73 -91 64 -127 -12 -49 -36 -56 -189 -56 l-141 0 -18 88 c-10 48 -20 97 -23 110 -5 21 -2 22 48 22 30 0 93 -4 141 -10z"/>
 </g>

</svg>